<?xml version="1.0" standalone="no"?>
<!DOCTYPE svg PUBLIC "-//W3C//DTD SVG 20010904//EN"
 "http://www.w3.org/TR/2001/REC-SVG-20010904/DTD/svg10.dtd">
<svg version="1.0" xmlns="http://www.w3.org/2000/svg"
 width="612.000000pt" height="612.000000pt" viewBox="0 0 612.000000 612.000000"
 preserveAspectRatio="xMidYMid meet">
<metadata>
Created by potrace 1.11, written by Peter Selinger 2001-2013
</metadata>
<g transform="translate(0.000000,612.000000) scale(0.100000,-0.100000)"
fill="#000000" stroke="none">
<path d="M2720 5663 c-227 -21 -392 -50 -497 -88 -40 -14 -83 -25 -96 -25 -39
0 -141 -45 -318 -141 -164 -89 -174 -97 -255 -184 -74 -81 -90 -93 -141 -109
-337 -105 -535 -341 -550 -657 -6 -118 7 -219 38 -285 10 -24 19 -46 19 -49 0
-4 18 -43 41 -87 l40 -81 -21 -50 c-49 -114 -48 -377 2 -586 36 -150 179 -522
248 -646 100 -180 118 -223 144 -337 27 -120 31 -158 19 -158 -4 0 -39 33 -78
73 -117 122 -245 167 -245 86 0 -5 45 -31 99 -59 55 -27 112 -62 126 -77 59
-62 214 -308 298 -473 l88 -175 -35 -32 c-56 -52 -122 -42 -206 31 l-25 21 20
-24 c36 -44 97 -81 131 -81 17 0 56 11 86 25 29 14 58 25 63 24 6 0 35 -35 65
-77 57 -79 271 -302 350 -365 122 -96 314 -207 440 -252 448 -163 775 -193
1038 -95 287 107 654 424 843 729 120 193 225 481 256 701 l8 55 71 5 c72 6
109 24 135 65 7 12 -3 7 -25 -13 -40 -35 -66 -39 -127 -20 l-39 11 -2 151 c-2
83 -1 197 1 253 2 87 -2 120 -27 225 -17 68 -33 138 -37 156 -4 18 -9 32 -11
30 -2 -2 6 -56 17 -119 33 -180 30 -501 -7 -704 -3 -16 -7 -41 -9 -55 -7 -55
-37 -189 -57 -255 -12 -38 -23 -77 -24 -85 -2 -8 -7 -23 -12 -35 -27 -56 -56
-121 -57 -125 -4 -20 -99 -182 -150 -257 -48 -70 -61 -86 -196 -233 -142 -155
-338 -330 -368 -330 -6 0 -11 -4 -11 -9 0 -4 -21 -19 -47 -32 -27 -13 -50 -26
-53 -30 -11 -12 -112 -50 -172 -64 -155 -38 -312 -28 -483 29 -546 184 -801
333 -1029 599 -28 32 -57 68 -65 80 -8 12 -18 24 -21 27 -14 12 -101 143 -155
235 -50 85 -77 140 -125 250 -44 103 -106 300 -141 445 -16 69 -38 163 -49
210 -11 47 -20 95 -20 107 0 12 -5 25 -10 28 -6 4 -8 11 -4 16 3 5 2 15 -3 22
-5 7 -17 39 -27 72 -10 33 -22 69 -27 80 -5 11 -7 30 -5 43 3 12 1 20 -4 17
-20 -12 -22 1 -46 265 -32 357 -11 534 88 738 97 197 302 344 569 406 97 22
147 31 399 72 96 15 463 101 555 130 229 70 388 103 547 111 276 14 457 -61
631 -263 104 -119 170 -238 261 -469 19 -49 56 -139 81 -200 68 -161 115 -296
149 -430 37 -146 65 -247 69 -251 2 -2 3 148 2 333 -3 485 -26 655 -118 898
-55 146 -85 195 -169 281 -72 74 -81 87 -94 143 -19 81 -39 119 -84 159 -34
29 -39 39 -50 105 -14 87 -59 184 -108 236 -21 20 -73 57 -117 81 -44 23 -97
58 -117 76 -106 94 -421 209 -643 234 -83 9 -343 11 -425 3z"/>
<path d="M3514 3996 c-138 -44 -269 -134 -280 -192 -7 -39 32 -89 78 -99 25
-6 40 -1 87 32 141 100 248 130 396 113 50 -6 108 -15 130 -21 60 -15 205 -71
211 -80 9 -15 54 -10 60 6 19 48 -60 123 -203 195 -145 72 -339 90 -479 46z"/>
<path d="M1980 3647 c-191 -59 -339 -184 -429 -364 -39 -78 -44 -99 -31 -123
19 -36 45 -22 134 74 123 134 262 223 388 249 65 14 130 13 231 -3 64 -10 84
-6 110 24 44 50 32 111 -28 141 -32 16 -65 20 -170 22 -113 3 -140 0 -205 -20z"/>
<path d="M3939 3230 c-80 -13 -179 -52 -257 -103 -91 -60 -206 -181 -238 -252
-32 -69 -26 -82 10 -21 14 25 30 48 36 51 5 3 15 -13 21 -35 12 -40 14 -41 48
-36 20 3 70 8 111 11 143 12 242 34 328 76 57 28 82 45 82 58 0 37 -31 119
-59 156 -17 22 -31 44 -31 49 0 15 137 -3 198 -25 89 -32 92 -33 92 -16 0 19
-40 48 -95 69 -51 20 -174 29 -246 18z m-229 -182 c0 -39 -25 -68 -60 -68 -25
0 -50 16 -50 32 0 11 80 68 97 68 8 0 13 -12 13 -32z"/>
<path d="M4834 3188 c-46 -55 -94 -187 -94 -259 0 -34 17 -12 24 32 8 52 37
108 92 182 24 33 44 63 44 68 0 21 -40 7 -66 -23z"/>
<path d="M2043 2795 c-143 -31 -290 -134 -317 -222 -13 -40 16 -26 84 40 57
55 128 102 138 92 2 -1 -2 -22 -8 -45 -11 -40 -6 -112 11 -157 8 -22 14 -23
116 -23 121 0 224 23 350 78 39 18 79 32 88 32 16 0 16 16 -1 97 -4 20 -2 22
21 13 41 -15 89 -41 108 -58 9 -8 20 -13 22 -10 3 3 -15 24 -41 46 -49 44
-157 91 -266 117 -77 18 -222 18 -305 0z m101 -78 c19 -26 19 -30 5 -55 -34
-61 -119 -47 -119 20 0 69 72 91 114 35z"/>
<path d="M3521 2213 c-44 -105 -230 -189 -443 -200 -86 -5 -116 -3 -151 11
-47 17 -95 63 -120 111 -13 26 -16 27 -22 12 -13 -33 15 -105 56 -141 70 -64
181 -80 336 -51 212 40 371 153 361 257 l-3 33 -14 -32z"/>
<path d="M3554 1679 c-190 -19 -322 -49 -535 -120 -181 -60 -229 -79 -229 -90
0 -5 13 -9 29 -9 39 0 353 68 696 151 88 21 178 41 200 45 40 7 98 32 80 35
-38 5 -92 3 -241 -12z m-195 -79 c-20 -12 -159 -43 -165 -37 -4 4 140 44 166
46 13 0 13 -1 -1 -9z"/>
</g>
</svg>
